<?xml version="1.0" encoding="UTF-8"?>
<svg id="Layer_2" data-name="Layer 2" xmlns="http://www.w3.org/2000/svg" xmlns:xlink="http://www.w3.org/1999/xlink" viewBox="0 0 70.77 63.67">
  <defs>
    <style>
      .cls-1 {
        fill: url(#radial-gradient);
      }

      .cls-1, .cls-2 {
        stroke-width: 0px;
      }

      .cls-2 {
        fill: url(#radial-gradient-2);
      }
    </style>
    <radialGradient id="radial-gradient" cx="34.27" cy="51.67" fx="34.27" fy="51.67" r="10.65" gradientUnits="userSpaceOnUse">
      <stop offset=".32" stop-color="#eeff3f"/>
      <stop offset="1" stop-color="#ffb22a"/>
    </radialGradient>
    <radialGradient id="radial-gradient-2" cx="3.24" cy="-2.66" fx="3.24" fy="-2.66" r="53.57" gradientUnits="userSpaceOnUse">
      <stop offset=".32" stop-color="#7daada" stop-opacity=".3"/>
      <stop offset="1" stop-color="#567cb8"/>
    </radialGradient>
  </defs>
  <g id="Thunder">
    <g>
      <path class="cls-1" d="M31.32,39.67c4.18.1,7.04,1.8,8,5.78l-2,4.22c3.15.68,5.54,1.57,6,3,.52,3.92-2.8,7.53-8,11-1.84-2.02-1.2-4.47,0-7-3.8.18-8.28.78-10-2-1.26-2.02,6-15,6-15Z"/>
      <path class="cls-2" d="M11.54,42.67c-14.12,0-19.09-26.51,7.42-31.49,3.31-14.91,24.86-14.91,28.32,0,5.03,1.32,7.75,4.07,8.13,8.29,18.23,0,23.2,24.86-1.66,23.2H11.54Z"/>
    </g>
  </g>
</svg>