<?xml version="1.0" encoding="UTF-8"?>
<svg id="Layer_2" data-name="Layer 2" xmlns="http://www.w3.org/2000/svg" xmlns:xlink="http://www.w3.org/1999/xlink" viewBox="0 0 59 70.92">
  <defs>
    <style>
      .cls-1 {
        fill: url(#radial-gradient);
      }

      .cls-1, .cls-2, .cls-3, .cls-4, .cls-5 {
        stroke-width: 0px;
      }

      .cls-2 {
        fill: url(#radial-gradient-2);
      }

      .cls-3 {
        fill: url(#radial-gradient-3);
      }

      .cls-4 {
        fill: url(#radial-gradient-4);
      }

      .cls-5 {
        fill: url(#radial-gradient-5);
      }
    </style>
    <radialGradient id="radial-gradient" cx="2.7" cy="-3.67" fx="2.7" fy="-3.67" r="55.46" gradientUnits="userSpaceOnUse">
      <stop offset=".32" stop-color="#eeff3f"/>
      <stop offset="1" stop-color="#ffb22a"/>
    </radialGradient>
    <radialGradient id="radial-gradient-2" cx="17.66" cy="28.65" fx="17.66" fy="28.65" r="32.33" gradientUnits="userSpaceOnUse">
      <stop offset=".32" stop-color="#fff"/>
      <stop offset="1" stop-color="#9dc8ee"/>
    </radialGradient>
    <radialGradient id="radial-gradient-3" cx="26.16" cy="56.07" fx="26.16" fy="56.07" r="7.1" gradientTransform="translate(2.93 1.31)" gradientUnits="userSpaceOnUse">
      <stop offset=".32" stop-color="#bdccd4"/>
      <stop offset="1" stop-color="#9dc8ee"/>
    </radialGradient>
    <radialGradient id="radial-gradient-4" cx="33.62" cy="57.63" fx="33.62" fy="57.63" r="7.1" gradientTransform="translate(2.48 2.75)" xlink:href="#radial-gradient-3"/>
    <radialGradient id="radial-gradient-5" cx="39.88" cy="53.3" fx="39.88" fy="53.3" r="7.1" gradientTransform="translate(3.21 4.08)" xlink:href="#radial-gradient-3"/>
  </defs>
  <g id="Light_Rain" data-name="Light Rain">
    <g>
      <circle class="cls-1" cx="29.5" cy="29.5" r="29.5"/>
      <path class="cls-2" d="M22.67,56c-8.52,0-11.52-16,4.48-19,2-9,15-9,17.09,0,3.03.79,4.68,2.46,4.91,5,11,0,14,15-1,14h-25.48Z"/>
      <rect class="cls-3" x="29" y="58" width="2" height="10" rx="1" ry="1" transform="translate(13.07 -4.69) rotate(11.42)"/>
      <rect class="cls-4" x="36" y="61" width="2" height="10" rx="1" ry="1" transform="translate(13.8 -6.02) rotate(11.42)"/>
      <rect class="cls-5" x="43" y="58" width="2" height="10" rx="1" ry="1" transform="translate(13.35 -7.46) rotate(11.42)"/>
    </g>
  </g>
</svg>