<?xml version="1.0" encoding="UTF-8"?>
<svg id="Layer_2" data-name="Layer 2" xmlns="http://www.w3.org/2000/svg" xmlns:xlink="http://www.w3.org/1999/xlink" viewBox="0 0 94.71 73.8">
  <defs>
    <style>
      .cls-1 {
        fill: url(#radial-gradient);
      }

      .cls-1, .cls-2, .cls-3, .cls-4 {
        stroke-width: 0px;
      }

      .cls-2 {
        fill: url(#radial-gradient-2);
      }

      .cls-3 {
        fill: url(#radial-gradient-3);
      }

      .cls-4 {
        fill: url(#radial-gradient-4);
      }
    </style>
    <radialGradient id="radial-gradient" cx="1.96" cy="26.4" fx="1.96" fy="26.4" r="32.33" gradientUnits="userSpaceOnUse">
      <stop offset=".32" stop-color="#fff"/>
      <stop offset="1" stop-color="#9dc8ee"/>
    </radialGradient>
    <radialGradient id="radial-gradient-2" cx="21.15" cy="2.08" fx="21.15" fy="2.08" r="55.46" gradientUnits="userSpaceOnUse">
      <stop offset=".32" stop-color="#eeff3f"/>
      <stop offset="1" stop-color="#ffb22a"/>
    </radialGradient>
    <radialGradient id="radial-gradient-3" cx="53.96" cy="-1.6" fx="53.96" fy="-1.6" r="32.33" xlink:href="#radial-gradient"/>
    <radialGradient id="radial-gradient-4" cx="36.96" cy="46.4" fx="36.96" fy="46.4" r="32.33" xlink:href="#radial-gradient"/>
  </defs>
  <g id="Partly_Cloudy" data-name="Partly Cloudy">
    <g>
      <path class="cls-1" d="M6.97,53.75c-8.52,0-11.52-16,4.48-19,2-9,15-9,17.09,0,3.03.79,4.68,2.46,4.91,5,11,0,14,15-1,14H6.97Z"/>
      <circle class="cls-2" cx="47.94" cy="35.25" r="29.5"/>
      <path class="cls-3" d="M58.97,25.75c-8.52,0-11.52-16,4.48-19,2-9,15-9,17.09,0,3.03.79,4.68,2.46,4.91,5,11,0,14,15-1,14h-25.48Z"/>
      <path class="cls-4" d="M41.97,73.75c-8.52,0-11.52-16,4.48-19,2-9,15-9,17.09,0,3.03.79,4.68,2.46,4.91,5,11,0,14,15-1,14h-25.48Z"/>
    </g>
  </g>
</svg>